<svg width="24" height="24" viewBox="0 0 24 24" fill="none" xmlns="http://www.w3.org/2000/svg">
<path d="M3.3257 14.4311L4.05479 14.2553L3.3257 14.4311ZM3.3257 8.95073L4.05479 9.12657L3.3257 8.95073ZM20.6743 8.95074L19.9452 9.12658L20.6743 8.95074ZM20.6743 14.4311L19.9452 14.2553L20.6743 14.4311ZM14.6945 20.1556L14.5277 19.4244H14.5277L14.6945 20.1556ZM9.30553 20.1556L9.47235 19.4244H9.47235L9.30553 20.1556ZM9.30553 3.22625L9.47234 3.95746V3.95746L9.30553 3.22625ZM14.6945 3.22625L14.5277 3.95746L14.6945 3.22625ZM9.03583 20.0941L8.86901 20.8253L8.86902 20.8253L9.03583 20.0941ZM14.9642 20.0941L15.131 20.8253H15.131L14.9642 20.0941ZM14.9642 3.28777L15.131 2.55656V2.55656L14.9642 3.28777ZM9.03583 3.28777L8.86901 2.55656V2.55656L9.03583 3.28777ZM9.20265 4.01899L9.47234 3.95746L9.13871 2.49503L8.86901 2.55656L9.20265 4.01899ZM14.5277 3.95746L14.7973 4.01899L15.131 2.55656L14.8613 2.49503L14.5277 3.95746ZM14.7973 19.3629L14.5277 19.4244L14.8613 20.8868L15.131 20.8253L14.7973 19.3629ZM9.47235 19.4244L9.20265 19.3629L8.86902 20.8253L9.13871 20.8868L9.47235 19.4244ZM4.05479 14.2553C3.6484 12.5702 3.6484 10.8116 4.05479 9.12657L2.5966 8.77489C2.13447 10.6911 2.13447 12.6908 2.5966 14.607L4.05479 14.2553ZM19.9452 9.12658C20.3516 10.8116 20.3516 12.5702 19.9452 14.2553L21.4034 14.607C21.8655 12.6908 21.8655 10.6911 21.4034 8.7749L19.9452 9.12658ZM14.5277 19.4244C12.8636 19.804 11.1364 19.804 9.47235 19.4244L9.13871 20.8868C11.0224 21.3166 12.9776 21.3166 14.8613 20.8868L14.5277 19.4244ZM9.47234 3.95746C11.1364 3.57782 12.8636 3.57782 14.5277 3.95746L14.8613 2.49503C12.9776 2.06529 11.0224 2.06529 9.13871 2.49503L9.47234 3.95746ZM9.20265 19.3629C6.66633 18.7842 4.67029 16.8073 4.05479 14.2553L2.5966 14.607C3.34453 17.7081 5.7727 20.1189 8.86901 20.8253L9.20265 19.3629ZM15.131 20.8253C18.2273 20.1189 20.6555 17.7081 21.4034 14.607L19.9452 14.2553C19.3297 16.8073 17.3337 18.7842 14.7973 19.3629L15.131 20.8253ZM14.7973 4.01899C17.3337 4.59763 19.3297 6.57451 19.9452 9.12658L21.4034 8.7749C20.6555 5.67374 18.2273 3.26296 15.131 2.55656L14.7973 4.01899ZM8.86901 2.55656C5.7727 3.26296 3.34453 5.67374 2.5966 8.77489L4.05479 9.12657C4.67029 6.5745 6.66633 4.59763 9.20265 4.01899L8.86901 2.55656Z" fill="black"/>
<path d="M14.25 9.74243C14.25 9.32822 13.9142 8.99243 13.5 8.99243C13.0858 8.99243 12.75 9.32822 12.75 9.74243H14.25ZM12.75 13.6394C12.75 14.0536 13.0858 14.3894 13.5 14.3894C13.9142 14.3894 14.25 14.0536 14.25 13.6394H12.75ZM11.25 9.74243C11.25 9.32822 10.9142 8.99243 10.5 8.99243C10.0858 8.99243 9.75 9.32822 9.75 9.74243H11.25ZM9.75 13.6394C9.75 14.0536 10.0858 14.3894 10.5 14.3894C10.9142 14.3894 11.25 14.0536 11.25 13.6394H9.75ZM12.75 9.74243V13.6394H14.25V9.74243H12.75ZM9.75 9.74243V13.6394H11.25V9.74243H9.75Z" fill="#AAE37B"/>
</svg>
