<svg width="30" height="30" viewBox="0 0 30 30" fill="none" xmlns="http://www.w3.org/2000/svg">
<path d="M12.1478 22.9004L11.4107 22.7621L11.4107 22.7621L12.1478 22.9004ZM12.172 22.7716L12.9091 22.91L12.9091 22.91L12.172 22.7716ZM17.8276 22.7716L17.0905 22.91L17.0905 22.91L17.8276 22.7716ZM17.8518 22.9004L18.5889 22.7621L18.5889 22.7621L17.8518 22.9004ZM17.4895 25.6899L18.1667 26.0122V26.0122L17.4895 25.6899ZM16.6663 25.6744C16.4883 26.0484 16.6472 26.4959 17.0213 26.6739C17.3953 26.8519 17.8428 26.693 18.0208 26.3189L16.6663 25.6744ZM12.5101 25.6899L11.8329 26.0122L11.8329 26.0122L12.5101 25.6899ZM11.9788 26.3189C12.1568 26.693 12.6043 26.8519 12.9783 26.6739C13.3524 26.4959 13.5113 26.0484 13.3333 25.6744L11.9788 26.3189ZM14.2011 20.5532L14.0006 19.8305L14.0006 19.8305L14.2011 20.5532ZM15.7985 20.5532L15.999 19.8305L15.999 19.8305L15.7985 20.5532ZM12.885 23.0388L12.9091 22.91L11.4349 22.6333L11.4107 22.7621L12.885 23.0388ZM17.0905 22.91L17.1146 23.0388L18.5889 22.7621L18.5647 22.6333L17.0905 22.91ZM16.8123 25.3676L16.6663 25.6744L18.0208 26.3189L18.1667 26.0122L16.8123 25.3676ZM11.8329 26.0122L11.9788 26.3189L13.3333 25.6744L13.1873 25.3676L11.8329 26.0122ZM17.1146 23.0388C17.2628 23.8279 17.1567 24.6439 16.8123 25.3676L18.1667 26.0122C18.6477 25.0015 18.7955 23.8629 18.5889 22.7621L17.1146 23.0388ZM11.4107 22.7621C11.2041 23.8629 11.3519 25.0015 11.8329 26.0122L13.1873 25.3676C12.8429 24.6439 12.7368 23.8279 12.885 23.0388L11.4107 22.7621ZM14.4016 21.2759C14.7932 21.1673 15.2064 21.1673 15.598 21.2759L15.999 19.8305C15.3451 19.6491 14.6545 19.6491 14.0006 19.8305L14.4016 21.2759ZM18.5647 22.6333C18.3118 21.2855 17.3182 20.1966 15.999 19.8305L15.598 21.2759C16.3613 21.4877 16.9422 22.12 17.0905 22.91L18.5647 22.6333ZM12.9091 22.91C13.0574 22.12 13.6383 21.4877 14.4017 21.2759L14.0006 19.8305C12.6814 20.1966 11.6879 21.2855 11.4349 22.6333L12.9091 22.91Z" fill="#A281FE"/>
<path d="M24.8625 12.1488C24.8625 11.7346 24.5267 11.3988 24.1125 11.3988C23.6983 11.3988 23.3625 11.7346 23.3625 12.1488H24.8625ZM6.63749 12.1488C6.63749 11.7346 6.3017 11.3988 5.88749 11.3988C5.47328 11.3988 5.13749 11.7346 5.13749 12.1488H6.63749ZM18.1416 25.8839L17.9691 25.154L18.1416 25.8839ZM11.8584 25.8839L12.0308 25.154L11.8584 25.8839ZM18.5355 6.26778L18.0033 6.79623L18.5355 6.26778ZM25.7178 14.5656C26.0096 14.8595 26.4845 14.8612 26.7784 14.5693C27.0724 14.2775 27.0741 13.8026 26.7822 13.5087L25.7178 14.5656ZM11.4645 6.26778L11.9967 6.79623V6.79623L11.4645 6.26778ZM3.21779 13.5087C2.92594 13.8026 2.92762 14.2775 3.22155 14.5693C3.51548 14.8612 3.99035 14.8595 4.28221 14.5656L3.21779 13.5087ZM23.3625 12.1488V18.2967H24.8625V12.1488H23.3625ZM6.63749 18.2967V12.1488H5.13749V18.2967H6.63749ZM17.9691 25.154C16.0162 25.6153 13.9838 25.6153 12.0308 25.154L11.686 26.6138C13.8657 27.1287 16.1343 27.1287 18.314 26.6138L17.9691 25.154ZM12.0308 25.154C8.8747 24.4084 6.63749 21.5707 6.63749 18.2967H5.13749C5.13749 22.2595 7.84631 25.7067 11.686 26.6138L12.0308 25.154ZM18.314 26.6138C22.1537 25.7067 24.8625 22.2595 24.8625 18.2967H23.3625C23.3625 21.5707 21.1253 24.4084 17.9691 25.154L18.314 26.6138ZM18.0033 6.79623L25.7178 14.5656L26.7822 13.5087L19.0677 5.73934L18.0033 6.79623ZM10.9323 5.73934L3.21779 13.5087L4.28221 14.5656L11.9967 6.79623L10.9323 5.73934ZM19.0677 5.73934C18.2494 4.91516 17.5835 4.24228 16.9881 3.78474C16.3755 3.31408 15.7493 3 15 3V4.5C15.2862 4.5 15.5944 4.60555 16.0741 4.97415C16.5709 5.35588 17.155 5.94189 18.0033 6.79623L19.0677 5.73934ZM11.9967 6.79623C12.845 5.94189 13.4291 5.35588 13.9259 4.97415C14.4056 4.60555 14.7138 4.5 15 4.5V3C14.2507 3 13.6245 3.31408 13.0119 3.78474C12.4165 4.24228 11.7506 4.91516 10.9323 5.73934L11.9967 6.79623Z" fill="black"/>
</svg>
