<svg width="60" height="60" viewBox="0 0 60 60" fill="none" xmlns="http://www.w3.org/2000/svg">
<g clip-path="url(#clip0_4356_3000)">
<path d="M39.2471 19.2428L39.4798 19.7142L40 19.7898L57.7456 22.3684L57.7456 22.3684C58.9446 22.5426 59.4236 24.0162 58.5558 24.8622L45.7149 37.3786L45.3384 37.7456L45.4273 38.2638L48.4585 55.9376C48.6634 57.1318 47.4099 58.0426 46.3374 57.4787L45.8721 58.3638L46.3374 57.4787L30.4652 49.1343L29.9999 48.8897L29.5346 49.1343L13.6625 57.4787C12.59 58.0425 11.3365 57.1317 11.5414 55.9376L10.5558 55.7685L11.5414 55.9376L14.5726 38.2638L14.6615 37.7456L14.285 37.3786L1.44419 24.862C1.44418 24.862 1.44417 24.862 1.44416 24.862C0.576537 24.0162 1.05525 22.5426 2.25454 22.3683L20 19.7897L20.5203 19.7141L20.7529 19.2427L28.6889 3.16265C28.6889 3.16265 28.6889 3.16264 28.6889 3.16263C29.2253 2.076 30.7746 2.076 31.311 3.16263C31.311 3.16264 31.311 3.16265 31.311 3.16265L39.2471 19.2428Z" stroke="#FFCC73" stroke-width="2"/>
</g>
<defs>
<clipPath id="clip0_4356_3000">
<rect width="60" height="60" fill="white"/>
</clipPath>
</defs>
</svg>
