<svg width="68" height="68" viewBox="0 0 68 68" fill="none" xmlns="http://www.w3.org/2000/svg">
<g clip-path="url(#clip0_4729_14554)">
<path d="M8.58684 59.4376H59.4134C65.5321 59.4376 69.1217 52.5537 65.6183 47.5369L40.9287 12.1788C37.5653 7.36228 30.435 7.36228 27.0721 12.1788L2.38202 47.5369C-1.1209 52.5537 2.46814 59.4376 8.58684 59.4376Z" fill="#FFE399"/>
<path d="M27.6818 37.9269C35.9488 29.1945 37.3958 16.3179 37.5146 9.3235C33.9774 7.7147 29.524 8.6667 27.0722 12.1784L2.38202 47.5367C-1.12091 52.5534 2.46814 59.4374 8.58685 59.4374H19.3971C19.2949 53.8577 20.5929 45.4153 27.6818 37.9269Z" fill="#FFCB43"/>
<path d="M34.0004 41.9519C31.6912 41.9519 29.8018 40.0619 29.8018 37.7527V20.9042C29.8018 18.5945 31.6912 16.7051 34.0004 16.7051C36.3101 16.7051 38.1996 18.5945 38.1996 20.9042V37.7527C38.1996 40.0619 36.3101 41.9519 34.0004 41.9519Z" fill="#F37C7C"/>
<path d="M38.1459 49.9416C38.1459 52.2316 36.2902 54.0873 34.0002 54.0873C31.7108 54.0873 29.8545 52.2316 29.8545 49.9416C29.8545 47.6522 31.7108 45.7959 34.0002 45.7959C36.2902 45.7959 38.1459 47.6522 38.1459 49.9416Z" fill="#F37C7C"/>
<path d="M36.7744 17.7582C36.0331 17.103 35.0613 16.7051 34.0004 16.7051C31.6912 16.7051 29.8018 18.5945 29.8018 20.9042V35.4104C33.8889 29.9568 35.8572 23.422 36.7744 17.7582Z" fill="#F37C7C"/>
<path d="M66.4353 46.9668L51.717 25.8891C51.4016 25.4382 50.7811 25.3277 50.3303 25.6431C49.8794 25.9581 49.7689 26.5785 50.0838 27.0294L64.8021 48.1071C66.2309 50.1532 66.3948 52.6959 65.2415 54.908C64.0877 57.1207 61.9093 58.4421 59.4139 58.4421H8.58676C6.09134 58.4421 3.91291 57.1207 2.75911 54.908C1.6053 52.6959 1.76976 50.1532 3.19801 48.1071L27.8881 12.749C29.3024 10.7236 31.5301 9.56198 34.0001 9.56198C36.4701 9.56198 38.6978 10.7236 40.112 12.749L47.5464 23.3957C47.8613 23.8466 48.4818 23.9571 48.9331 23.6421C49.384 23.3272 49.4945 22.7062 49.1791 22.2554L41.7447 11.6086C39.9528 9.04214 37.13 7.57031 34.0001 7.57031C30.8702 7.57031 28.0474 9.04214 26.2549 11.6086L1.56535 46.9668C-0.296613 49.6329 -0.510357 52.9459 0.993118 55.8289C2.49659 58.7123 5.33494 60.4332 8.58676 60.4332H59.4139C62.6652 60.4332 65.5041 58.7123 67.007 55.8289C68.5105 52.9459 68.2967 49.6329 66.4353 46.9668Z" fill="black"/>
<path d="M39.1951 20.9047C39.1951 18.0404 36.8647 15.71 34.0004 15.71C31.1361 15.71 28.8057 18.0404 28.8057 20.9047V37.7532C28.8057 40.6175 31.1361 42.9479 34.0004 42.9479C36.8647 42.9479 39.1951 40.6175 39.1951 37.7532V20.9047ZM37.204 37.7532C37.204 39.5192 35.7669 40.9563 34.0004 40.9563C32.2344 40.9563 30.7973 39.5192 30.7973 37.7532V20.9047C30.7973 19.1382 32.2344 17.7016 34.0004 17.7016C35.7669 17.7016 37.204 19.1382 37.204 20.9047V37.7532Z" fill="black"/>
<path d="M33.9997 53.0918C32.2633 53.0918 30.8501 51.6786 30.8501 49.9416C30.8501 49.3917 30.4044 48.946 29.854 48.946C29.304 48.946 28.8584 49.3917 28.8584 49.9416C28.8584 52.7769 31.165 55.0834 33.9997 55.0834C36.8349 55.0834 39.1415 52.7769 39.1415 49.9416C39.1415 47.1064 36.8349 44.7998 33.9997 44.7998C33.0695 44.7998 32.1574 45.0514 31.3626 45.5272C30.8911 45.8099 30.737 46.4211 31.0197 46.8932C31.3019 47.3653 31.9136 47.5188 32.3857 47.2361C32.8713 46.9456 33.4295 46.7915 33.9997 46.7915C35.7366 46.7915 37.1498 48.2047 37.1498 49.9416C37.1498 51.6786 35.7366 53.0918 33.9997 53.0918Z" fill="black"/>
</g>
<defs>
<clipPath id="clip0_4729_14554">
<rect width="68" height="68" fill="white"/>
</clipPath>
</defs>
</svg>
