<svg width="62" height="62" viewBox="0 0 62 62" fill="none" xmlns="http://www.w3.org/2000/svg">
<g clip-path="url(#clip0_4701_10030)">
<path d="M55.7325 46.4223L31 49.5967L6.26807 46.4223L12.2996 36.1629L31 33.5981L49.7005 36.1629L55.7325 46.4223Z" fill="#FF9393"/>
<path d="M9.90088 46.4223L15.9324 36.1629L32.8165 33.847L31 33.5981L12.2996 36.1629L6.26807 46.4223L31 49.5967L32.8165 49.3635L9.90088 46.4223Z" fill="#F37C7C"/>
<path d="M43.669 25.9042L31 28.9003L18.3311 25.9042L24.363 15.6453L31 13.1558L37.637 15.6453L43.669 25.9042Z" fill="#FF9393"/>
<path d="M21.9639 25.9042L27.9958 15.6453L32.8164 13.8369L31 13.1558L24.363 15.6453L18.3311 25.9042L31 28.9003L32.8164 28.4708L21.9639 25.9042Z" fill="#F37C7C"/>
<path d="M60.1906 56.6799H1.80926C1.11392 56.6799 0.680627 55.9244 1.03398 55.3251L6.26797 46.4224H55.7324L60.9659 55.3251C61.3193 55.9244 60.886 56.6799 60.1906 56.6799Z" fill="#C6B1FF"/>
<path d="M4.66679 55.3251L9.90078 46.4224H6.26797L1.03398 55.3251C0.680627 55.9244 1.11392 56.6799 1.80926 56.6799H5.44207C4.74673 56.6799 4.31344 55.9244 4.66679 55.3251Z" fill="#B99FFF"/>
<path d="M49.7003 36.1632H12.2993L18.3308 25.9043H43.6687L49.7003 36.1632Z" fill="#C6B1FF"/>
<path d="M18.3308 25.9043L12.2993 36.1632H15.9321L21.9636 25.9043H18.3308Z" fill="#B99FFF"/>
<path d="M37.6367 15.6452H24.3628L30.0854 5.91037C30.2902 5.56175 30.645 5.38721 30.9998 5.38721C31.3545 5.38721 31.7093 5.56175 31.9141 5.91037L37.6367 15.6452Z" fill="#C6B1FF"/>
<path d="M31.9141 5.91037C31.7093 5.56175 31.3545 5.38721 30.9998 5.38721C30.645 5.38721 30.2902 5.56175 30.0854 5.91037L24.3628 15.6452H27.9956L32.8162 7.44485L31.9141 5.91037Z" fill="#FF9393"/>
<path d="M20.1973 38.8848C19.6954 38.8848 19.2891 39.2911 19.2891 39.793V41.748C19.2891 42.2494 19.6954 42.6562 20.1973 42.6562C20.6987 42.6562 21.1055 42.2494 21.1055 41.748V39.793C21.1055 39.2911 20.6987 38.8848 20.1973 38.8848Z" fill="black"/>
<path d="M41.8027 38.8848C41.3013 38.8848 40.8945 39.2911 40.8945 39.793V41.748C40.8945 42.2494 41.3013 42.6562 41.8027 42.6562C42.3041 42.6562 42.7109 42.2494 42.7109 41.748V39.793C42.7109 39.2911 42.3041 38.8848 41.8027 38.8848Z" fill="black"/>
<path d="M34.264 40.9282C33.8865 40.598 33.3127 40.6363 32.9825 41.0142C32.5001 41.5667 31.7773 41.8832 31.0001 41.8832C30.2229 41.8832 29.5006 41.5667 29.0177 41.0142C28.6875 40.6368 28.1137 40.598 27.7363 40.9282C27.3588 41.2583 27.32 41.8316 27.6502 42.2096C28.478 43.1566 29.6988 43.6996 31.0001 43.6996C32.3014 43.6996 33.5223 43.1566 34.3501 42.2096C34.6802 41.8321 34.6419 41.2583 34.264 40.9282Z" fill="black"/>
<path d="M1.81071 57.5867H60.1893C60.8463 57.5867 61.4333 57.2461 61.7592 56.6757C62.0847 56.1057 62.0799 55.4278 61.7469 54.8635L32.6977 5.45206C32.3405 4.84375 31.7057 4.48047 31 4.48047C30.2942 4.48047 29.6594 4.84375 29.3028 5.45158L0.253525 54.8626C-0.0799563 55.4278 -0.0846866 56.1057 0.240753 56.6757C0.566665 57.2461 1.15369 57.5867 1.81071 57.5867ZM30.869 6.37161C30.9276 6.2718 31.0733 6.27275 31.1315 6.37209L36.0495 14.738H25.9505C25.9505 14.738 30.8472 6.40804 30.869 6.37161ZM18.8513 26.8128H24.1629C24.6516 26.8128 25.0711 26.3937 25.0711 25.9046C25.0711 25.4164 24.652 24.9964 24.1629 24.9964H19.9194L24.8829 16.5539H37.1171L42.0805 24.9964H27.782C27.2929 24.9964 26.8738 25.4141 26.8738 25.9041C26.8738 26.3909 27.2962 26.8123 27.782 26.8123H43.1486L48.112 35.2548H13.8879L18.8513 26.8128ZM6.7888 47.3297H45.7673C46.2691 47.3297 46.6755 46.9229 46.6755 46.4215C46.6755 45.9201 46.2691 45.5133 45.7673 45.5133H7.85641L12.8198 37.0712H49.1801L54.1436 45.5133H49.1513C48.6494 45.5133 48.2431 45.9201 48.2431 46.4215C48.2431 46.9229 48.6494 47.3297 49.1513 47.3297H55.2112L60.1732 55.7708L1.8268 55.7703L6.7888 47.3297Z" fill="black"/>
</g>
<defs>
<clipPath id="clip0_4701_10030">
<rect width="62" height="62" fill="white"/>
</clipPath>
</defs>
</svg>
