<svg width="62" height="62" viewBox="0 0 62 62" fill="none" xmlns="http://www.w3.org/2000/svg">
<path d="M48.5892 58H13.4109C8.21342 58 4 53.7866 4 48.589V13.411C4 8.21341 8.21342 4 13.4109 4H48.5891C53.7866 4 58 8.21341 58 13.411V48.5891C58.0001 53.7866 53.7867 58 48.5892 58Z" fill="#B2E787"/>
<path d="M20.0453 4H13.3258C8.17531 4 4 8.2134 4 13.411V48.589C4 53.7866 8.17531 58 13.3258 58H31C23.6846 45.9967 18.4296 19.3853 20.0453 4Z" fill="#B2E787"/>
<path d="M4 38V48.7613C4 53.8637 8.21342 58 13.4109 58H48.5891C53.7866 58 58 53.8637 58 48.7613V38H4Z" fill="#E0F6CE"/>
<path d="M23.3668 38H4V48.7613C4 53.8637 8.17531 58 13.3258 58H31C27.9981 53.1644 25.3427 45.9136 23.3668 38Z" fill="#E0F6CE"/>
<path d="M47.3298 53H14.6703C11.5386 53 9 50.4276 9 47.2546V27.7454C9 24.5722 11.5387 22 14.6703 22H47.3297C50.4614 22 53 24.5724 53 27.7454V47.2546C53.0001 50.4276 50.4614 53 47.3298 53Z" fill="#E0F6CE"/>
<path d="M20.9099 22H14.8132C11.6026 22 9 24.5724 9 27.7454V47.2546C9 50.4278 11.6027 53 14.8132 53H29C25.2513 44.6281 22.3001 32.9544 20.9099 22Z" fill="#DEF3CC"/>
<path d="M22.113 47C21.6874 47 21.2731 46.8267 20.9654 46.5088L17.2014 42.6206H15.6231C14.7266 42.6206 14 41.8699 14 40.9439C14 40.0178 14.7266 39.2672 15.6231 39.2672H17.8737C18.3041 39.2672 18.7169 39.4438 19.0213 39.7583L21.4592 42.2766L25.7482 30.1032C25.9816 29.4409 26.5911 29 27.2734 29H46.3769C47.2734 29 48 29.7506 48 30.6767C48 31.6028 47.2734 32.3534 46.3769 32.3534H28.4099L23.6383 45.8966C23.4485 46.435 23.0058 46.8362 22.4644 46.9601C22.3478 46.9869 22.23 47 22.113 47Z" fill="#F37C7C"/>
<path d="M39.1921 40L41.546 37.6461C42.1513 37.0409 42.1513 36.0594 41.546 35.454C40.9407 34.8487 39.9592 34.8487 39.3539 35.454L37 37.8079L34.6461 35.454C34.0409 34.8487 33.0594 34.8487 32.454 35.454C31.8487 36.0594 31.8487 37.0408 32.454 37.6461L34.8079 40L32.454 42.3539C31.8487 42.9591 31.8487 43.9406 32.454 44.546C32.7567 44.8487 33.1533 45 33.5501 45C33.9468 45 34.3435 44.8487 34.6461 44.546L37 42.1921L39.3539 44.546C39.6565 44.8487 40.0532 45 40.4499 45C40.8467 45 41.2433 44.8487 41.546 44.546C42.1513 43.9407 42.1513 42.9592 41.546 42.3539L39.1921 40Z" fill="#F37C7C"/>
<path d="M23 16.0001C23 18.2092 20.7614 20 18 20C15.2386 20 13 18.2092 13 16.0001C13 13.7909 15.2386 12 18 12C20.7614 12 23 13.7909 23 16.0001Z" fill="white"/>
<path d="M39 16.0001C39 18.2092 41.2386 20 44 20C46.7614 20 49 18.2092 49 16.0001C49 13.7909 46.7614 12 44 12C41.2386 12 39 13.7909 39 16.0001Z" fill="white"/>
<path d="M35 12.6364C35 10.2264 33.2091 10 31 10C28.7909 10 27 10.2264 27 12.6364C27 15.0464 28.7909 17 31 17C33.2092 17 35 15.0464 35 12.6364Z" fill="#F37C7C"/>
<path d="M43.316 36.4486C43.316 35.79 43.0594 35.1706 42.5936 34.705C41.6321 33.7435 40.0676 33.7436 39.1061 34.705L37.1872 36.624L35.2684 34.705C34.3068 33.7436 32.7425 33.7435 31.7809 34.705C31.3151 35.1707 31.0586 35.79 31.0586 36.4487C31.0586 37.1074 31.3152 37.7267 31.7809 38.1924L33.7 40.1114L31.781 42.0304C31.3152 42.4961 31.0587 43.1154 31.0587 43.774C31.0587 44.4327 31.3153 45.0521 31.781 45.5177C32.2468 45.9835 32.866 46.24 33.5247 46.24C34.1833 46.24 34.8026 45.9835 35.2685 45.5177L37.1873 43.5988L39.1063 45.5178C39.5722 45.9835 40.1914 46.24 40.85 46.24C41.5086 46.24 42.128 45.9835 42.5935 45.5178C43.0594 45.0521 43.316 44.4328 43.316 43.774C43.316 43.1154 43.0594 42.496 42.5936 42.0304L40.6745 40.1114L42.5935 38.1925C43.0594 37.7267 43.316 37.1073 43.316 36.4486ZM41.4335 37.0322L38.9344 39.5312C38.7806 39.685 38.6942 39.8937 38.6942 40.1113C38.6942 40.3288 38.7806 40.5375 38.9344 40.6913L41.4336 43.1904C41.5895 43.3462 41.6753 43.5534 41.6753 43.7739C41.6753 43.9944 41.5895 44.2017 41.4335 44.3575C41.2776 44.5134 41.0705 44.5991 40.85 44.5991C40.6295 44.5991 40.4222 44.5133 40.2664 44.3574L37.7674 41.8584C37.6135 41.7045 37.4049 41.6181 37.1872 41.6181C36.9697 41.6181 36.7611 41.7045 36.6071 41.8584L34.1082 44.3574C33.9522 44.5133 33.745 44.5991 33.5245 44.5991C33.304 44.5991 33.0968 44.5133 32.9409 44.3574C32.785 44.2016 32.6991 43.9943 32.6991 43.7739C32.6991 43.5534 32.785 43.3462 32.941 43.1904L35.4401 40.6914C35.5939 40.5376 35.6803 40.3289 35.6803 40.1114C35.6803 39.8938 35.5939 39.6851 35.4401 39.5314L32.9409 37.0322C32.785 36.8764 32.6991 36.6691 32.6991 36.4487C32.6991 36.2282 32.785 36.021 32.941 35.8651C33.2625 35.5433 33.7863 35.5433 34.1081 35.8651L36.6071 38.3641C36.761 38.518 36.9697 38.6044 37.1872 38.6044C37.4048 38.6044 37.6134 38.518 37.7674 38.3641L40.2664 35.8651C40.588 35.5432 41.1116 35.5434 41.4336 35.8651C41.5895 36.021 41.6753 36.2282 41.6753 36.4486C41.6753 36.6691 41.5894 36.8764 41.4335 37.0322ZM12.9433 40.6374C12.9433 41.9971 14.0495 43.1033 15.4093 43.1033H16.6697L20.2457 46.6792C20.7114 47.1451 21.3307 47.4017 21.9895 47.4017C22.1683 47.4017 22.3477 47.382 22.5232 47.3431C23.3501 47.1597 24.0168 46.5751 24.3067 45.779L28.9481 33.0263H46.5906C47.9504 33.0263 49.0566 31.9201 49.0566 30.5603C49.0566 29.2006 47.9504 28.0943 46.5906 28.0943H27.2214C26.1887 28.0943 25.2575 28.7463 24.9042 29.7169L20.9959 40.4548L19.4348 38.8937C18.9691 38.4279 18.3499 38.1714 17.6911 38.1714H15.4093C14.0495 38.1714 12.9433 39.2777 12.9433 40.6374ZM15.4093 39.812H17.6911C17.9116 39.812 18.1188 39.8979 18.2748 40.0537L20.7465 42.5254C20.9448 42.7236 21.2304 42.807 21.5042 42.7462C21.7778 42.6855 22.0015 42.4893 22.0974 42.2259L26.446 30.2781C26.5642 29.9533 26.8759 29.7351 27.2215 29.7351H46.5908C47.0459 29.7351 47.4161 30.1053 47.4161 30.5604C47.4161 31.0155 47.0459 31.3858 46.5908 31.3858H28.3738C28.0289 31.3858 27.7209 31.6015 27.6029 31.9255L22.765 45.2179C22.668 45.4843 22.4448 45.6802 22.1683 45.7415C21.8919 45.8025 21.6039 45.7175 21.4057 45.5193L17.5894 41.7031C17.4355 41.5492 17.227 41.4628 17.0094 41.4628H15.4091C14.954 41.4628 14.5838 41.0926 14.5838 40.6375C14.5839 40.1824 14.9541 39.812 15.4093 39.812ZM58.0975 50.2078C57.6579 50.0984 57.2128 50.3657 57.1032 50.8054C56.1418 54.6643 52.6888 57.3593 48.7062 57.3593H13.2939C8.52245 57.3594 4.64062 53.4775 4.64062 48.7061V13.2939C4.64062 9.26358 7.37533 5.80098 11.291 4.87338C11.7318 4.76892 12.0045 4.32694 11.9001 3.88605C11.7957 3.44527 11.354 3.17248 10.9127 3.27694C8.69625 3.80205 6.68692 5.07583 5.25509 6.86356C3.80084 8.6793 3 10.963 3 13.2939V48.7062C3 54.3822 7.61781 59 13.2939 59H48.7062C53.4436 59 57.5513 55.7933 58.6952 51.2021C58.8048 50.7624 58.5371 50.3173 58.0975 50.2078ZM8.28238 28.0891V47.2535C8.28238 50.8179 11.1822 53.7177 14.7465 53.7177H47.2533C50.8178 53.7177 53.7176 50.8179 53.7176 47.2535V28.0891C53.7176 24.5247 50.8178 21.6248 47.2533 21.6248H14.7465C11.1822 21.6248 8.28238 24.5247 8.28238 28.0891ZM52.077 28.0891V47.2535C52.077 49.9132 49.9131 52.0771 47.2533 52.0771H14.7465C12.0869 52.0771 9.923 49.9132 9.923 47.2535V28.0891C9.923 25.4293 12.0869 23.2654 14.7465 23.2654H47.2533C49.9131 23.2654 52.077 25.4293 52.077 28.0891ZM19.2358 11.1769V9.05281C19.2358 8.59978 18.8686 8.2325 18.4155 8.2325C17.9625 8.2325 17.5952 8.59978 17.5952 9.05281V11.1769C17.5952 11.6299 17.9625 11.9972 18.4155 11.9972C18.8686 11.9972 19.2358 11.6299 19.2358 11.1769ZM44.4048 11.1769V9.05281C44.4048 8.59978 44.0376 8.2325 43.5845 8.2325C43.1313 8.2325 42.7642 8.59978 42.7642 9.05281V11.1769C42.7642 11.6299 43.1313 11.9972 43.5845 11.9972C44.0375 11.9972 44.4048 11.6299 44.4048 11.1769ZM48.7062 3H15.0187C14.5656 3 14.1984 3.36728 14.1984 3.82031C14.1984 4.27334 14.5656 4.64062 15.0187 4.64062H48.7062C53.4775 4.64062 57.3594 8.52245 57.3594 13.2939V47.0974C57.3594 47.5504 57.7265 47.9177 58.1797 47.9177C58.6328 47.9177 59 47.5504 59 47.0974V13.2939C59 7.61781 54.3822 3 48.7062 3V3ZM35.8101 12.8022C35.8101 9.28436 32.6811 9.28436 31 9.28436C29.3189 9.28436 26.1898 9.28436 26.1898 12.8022C26.1898 15.7163 28.3477 18.0871 31 18.0871C33.6523 18.0871 35.8101 15.7163 35.8101 12.8022ZM27.8304 12.8022C27.8304 11.311 28.4821 10.925 31 10.925C33.5178 10.925 34.1695 11.311 34.1695 12.8022C34.1695 14.8116 32.7476 16.4465 31 16.4465C29.2523 16.4465 27.8304 14.8116 27.8304 12.8022Z" fill="black"/>
</svg>
