<svg width="24" height="24" viewBox="0 0 24 24" fill="none" xmlns="http://www.w3.org/2000/svg">
<path d="M20.25 12.1525C20.25 11.7383 20.5858 11.4025 21 11.4025C21.4142 11.4025 21.75 11.7383 21.75 12.1525H20.25ZM21 8.22034H21.75C21.75 8.63455 21.4142 8.97034 21 8.97034V8.22034ZM20.25 3C20.25 2.58579 20.5858 2.25 21 2.25C21.4142 2.25 21.75 2.58579 21.75 3L20.25 3ZM16.3449 8.97034C15.9307 8.97034 15.5949 8.63455 15.5949 8.22034C15.5949 7.80612 15.9307 7.47034 16.3449 7.47034V8.97034ZM12 20.25C16.5685 20.25 20.25 16.6126 20.25 12.1525H21.75C21.75 17.4651 17.3726 21.75 12 21.75V20.25ZM3.75 12.1525C3.75 16.6126 7.43151 20.25 12 20.25V21.75C6.62736 21.75 2.25 17.4651 2.25 12.1525H3.75ZM12 4.05508C7.40369 4.05508 3.75 7.69089 3.75 12.1525H2.25C2.25 6.84156 6.59631 2.55508 12 2.55508V4.05508ZM20.25 8.22034V3L21.75 3V8.22034H20.25ZM12 2.55508C15.2186 2.55508 17.6311 3.87653 19.2253 5.18253C20.0218 5.83506 20.6192 6.48743 21.0192 6.97893C21.2195 7.22506 21.3712 7.432 21.4745 7.58005C21.5262 7.65412 21.5658 7.71356 21.5934 7.75594C21.6072 7.77713 21.618 7.79407 21.6258 7.80644C21.6297 7.81263 21.6328 7.81768 21.6352 7.82155C21.6364 7.82349 21.6374 7.82513 21.6383 7.82648C21.6387 7.82715 21.639 7.82774 21.6394 7.82827C21.6395 7.82853 21.6397 7.82886 21.6398 7.82899C21.64 7.82931 21.6402 7.82961 21 8.22034C20.3598 8.61107 20.36 8.61133 20.3601 8.61157C20.3602 8.61162 20.3603 8.61184 20.3604 8.61196C20.3605 8.61218 20.3606 8.61233 20.3606 8.6124C20.3607 8.61256 20.3606 8.61242 20.3604 8.61199C20.3599 8.61114 20.3586 8.60914 20.3567 8.60603C20.3527 8.5998 20.3459 8.58914 20.3363 8.57433C20.317 8.54471 20.2863 8.49855 20.2442 8.43821C20.16 8.31746 20.0305 8.14039 19.8558 7.92572C19.5058 7.49561 18.9782 6.91917 18.2747 6.34288C16.8689 5.19126 14.7814 4.05508 12 4.05508V2.55508ZM21 8.97034H16.3449V7.47034H21V8.97034Z" fill="black"/>
<path d="M12 4.05508C11.5858 4.05508 11.25 3.71929 11.25 3.30508C11.25 2.89087 11.5858 2.55508 12 2.55508V4.05508ZM21 8.22034H21.75C21.75 8.63455 21.4142 8.97034 21 8.97034V8.22034ZM20.25 3C20.25 2.58579 20.5858 2.25 21 2.25C21.4142 2.25 21.75 2.58579 21.75 3L20.25 3ZM16.3449 8.97034C15.9307 8.97034 15.5949 8.63455 15.5949 8.22034C15.5949 7.80612 15.9307 7.47034 16.3449 7.47034V8.97034ZM20.25 8.22034V3L21.75 3V8.22034H20.25ZM12 2.55508C15.2186 2.55508 17.6311 3.87653 19.2253 5.18253C20.0218 5.83506 20.6192 6.48743 21.0192 6.97893C21.2195 7.22506 21.3712 7.432 21.4745 7.58005C21.5262 7.65412 21.5658 7.71356 21.5934 7.75594C21.6072 7.77713 21.618 7.79406 21.6258 7.80644C21.6297 7.81263 21.6328 7.81768 21.6352 7.82155C21.6364 7.82349 21.6374 7.82513 21.6383 7.82648C21.6387 7.82715 21.639 7.82774 21.6394 7.82827C21.6395 7.82853 21.6397 7.82886 21.6398 7.82899C21.64 7.82931 21.6402 7.8296 21 8.22034C20.3598 8.61107 20.36 8.61132 20.3601 8.61157C20.3602 8.61162 20.3603 8.61184 20.3604 8.61196C20.3605 8.61218 20.3606 8.61233 20.3606 8.6124C20.3607 8.61256 20.3606 8.61242 20.3604 8.61199C20.3599 8.61114 20.3586 8.60914 20.3567 8.60603C20.3527 8.5998 20.3459 8.58914 20.3363 8.57433C20.317 8.54471 20.2863 8.49855 20.2442 8.43821C20.16 8.31746 20.0305 8.14039 19.8558 7.92572C19.5058 7.49561 18.9782 6.91917 18.2747 6.34288C16.8689 5.19126 14.7814 4.05508 12 4.05508V2.55508ZM21 8.97034H16.3449V7.47034H21V8.97034Z" fill="#886AFF"/>
</svg>
