<svg width="30" height="30" viewBox="0 0 30 30" fill="none" xmlns="http://www.w3.org/2000/svg">
<path d="M22.0187 19.3161C20.7801 19.3161 19.6642 19.8334 18.8896 20.6562L11.9233 16.4837C12.1093 16.0233 12.2125 15.5232 12.2125 15C12.2125 14.4766 12.1093 13.9765 11.9233 13.5163L18.8896 9.34357C19.6642 10.1664 20.7801 10.6839 22.0187 10.6839C24.3519 10.6839 26.25 8.84823 26.25 6.59184C26.25 4.33544 24.3519 2.5 22.0187 2.5C19.6855 2.5 17.7873 4.33563 17.7873 6.59203C17.7873 7.11521 17.8907 7.61532 18.0765 8.07575L11.1104 12.2483C10.3358 11.4254 9.21993 10.908 7.98134 10.908C5.64813 10.908 3.75 12.7438 3.75 15C3.75 17.2564 5.64813 19.092 7.98134 19.092C9.21993 19.092 10.3358 18.5748 11.1104 17.7517L18.0765 21.9242C17.8907 22.3847 17.7873 22.8848 17.7873 23.4082C17.7873 25.6644 19.6855 27.5 22.0187 27.5C24.3519 27.5 26.25 25.6644 26.25 23.4082C26.25 21.1518 24.3519 19.3161 22.0187 19.3161ZM19.3302 6.59203C19.3302 5.15846 20.5363 3.99212 22.0187 3.99212C23.501 3.99212 24.7071 5.15846 24.7071 6.59203C24.7071 8.02559 23.501 9.19193 22.0187 9.19193C20.5363 9.19193 19.3302 8.02559 19.3302 6.59203ZM7.98134 17.5999C6.49877 17.5999 5.29272 16.4336 5.29272 15C5.29272 13.5664 6.49877 12.4001 7.98134 12.4001C9.4637 12.4001 10.6696 13.5664 10.6696 15C10.6696 16.4336 9.4637 17.5999 7.98134 17.5999ZM19.3302 23.408C19.3302 21.9744 20.5363 20.8081 22.0187 20.8081C23.501 20.8081 24.7071 21.9744 24.7071 23.408C24.7071 24.8415 23.501 26.0079 22.0187 26.0079C20.5363 26.0079 19.3302 24.8415 19.3302 23.408Z" fill="black"/>
</svg>
