<svg width="62" height="62" viewBox="0 0 62 62" fill="none" xmlns="http://www.w3.org/2000/svg">
<path d="M49.1641 61.0918H12.8359C9.49205 61.0918 6.78125 58.381 6.78125 55.0371V6.96289C6.78125 3.61901 9.49205 0.908203 12.8359 0.908203H49.1641C52.5079 0.908203 55.2188 3.61901 55.2188 6.96289V55.0371C55.2188 58.381 52.5079 61.0918 49.1641 61.0918Z" fill="#FAD989"/>
<path d="M11.625 55.0371V6.96289C11.625 3.61901 14.3358 0.908203 17.6797 0.908203H12.8359C9.49205 0.908203 6.78125 3.61901 6.78125 6.96289V55.0371C6.78125 58.381 9.49205 61.0918 12.8359 61.0918H17.6797C14.3358 61.0918 11.625 58.381 11.625 55.0371Z" fill="#FFCB43"/>
<path d="M23.4657 10.0942L17.4718 16.088L15.7593 14.3754C14.8136 13.4297 13.28 13.4297 12.3343 14.3754C11.3886 15.3212 11.3886 16.8547 12.3343 17.8005L15.7593 21.2255C16.7051 22.1712 18.2386 22.1712 19.1843 21.2255L26.8907 13.5191C27.8365 12.5733 27.8365 11.0398 26.8907 10.0941C25.945 9.14831 24.4115 9.14831 23.4657 10.0942Z" fill="#95E8C8"/>
<path d="M15.3801 16.834C15.9278 16.2863 16.6369 15.9987 17.3544 15.9704L15.7593 14.3753C14.8136 13.4296 13.28 13.4296 12.3343 14.3753C11.3886 15.3211 11.3886 16.8546 12.3343 17.8003L14.8734 20.3394C14.2621 19.2174 14.4306 17.7834 15.3801 16.834Z" fill="#82D9B6"/>
<path d="M21.7536 40.7747L19.613 42.9154L17.4723 40.7747C16.5265 39.829 14.993 39.829 14.0472 40.7747C13.1015 41.7205 13.1015 43.254 14.0472 44.1998L16.1879 46.3404L14.0472 48.4811C13.1015 49.4269 13.1014 50.9604 14.0472 51.9062C14.993 52.8519 16.5265 52.8519 17.4723 51.9062L19.613 49.7655L21.7536 51.9062C22.6994 52.8519 24.2329 52.8519 25.1787 51.9062C26.1244 50.9604 26.1244 49.4269 25.1787 48.4811L23.038 46.3404L25.1787 44.1998C26.1244 43.254 26.1244 41.7205 25.1787 40.7747C24.2328 39.829 22.6994 39.829 21.7536 40.7747Z" fill="#FF9696"/>
<path d="M16.1879 49.7649C15.2421 48.819 15.2422 47.2856 16.1879 46.3398L14.0472 48.4804C13.1015 49.4262 13.1014 50.9597 14.0472 51.9054C14.993 52.8512 16.5265 52.8512 17.4723 51.9054L19.613 49.7647C18.6672 50.7106 17.1337 50.7106 16.1879 49.7649Z" fill="#FF73A5"/>
<path d="M16.1879 42.9154C17.1336 41.9696 18.6672 41.9696 19.6129 42.9154L17.4722 40.7747C16.5265 39.829 14.9929 39.829 14.0472 40.7747C13.1015 41.7205 13.1015 43.254 14.0472 44.1998L16.1879 46.3404C15.242 45.3947 15.242 43.8612 16.1879 42.9154Z" fill="#FF73A5"/>
<path d="M23.4657 24.4339L17.4718 30.4277L15.7593 28.7152C14.8136 27.7695 13.28 27.7695 12.3343 28.7152C11.3886 29.6609 11.3886 31.1945 12.3343 32.1402L15.7593 35.5652C16.7051 36.511 18.2386 36.511 19.1843 35.5652L26.8907 27.8588C27.8365 26.9131 27.8365 25.3796 26.8907 24.4338C25.945 23.4882 24.4115 23.4882 23.4657 24.4339Z" fill="#95E8C8"/>
<path d="M15.3801 31.1739C15.9278 30.6261 16.6369 30.3385 17.3544 30.3102L15.7593 28.7152C14.8136 27.7694 13.28 27.7694 12.3343 28.7152C11.3886 29.6609 11.3886 31.1944 12.3343 32.1402L14.8734 34.6793C14.2621 33.5572 14.4306 32.1233 15.3801 31.1739Z" fill="#82D9B6"/>
<path d="M49.1641 0H12.8359C8.99654 0 5.87305 3.12349 5.87305 6.96289V55.0371C5.87305 58.8765 8.99654 62 12.8359 62H29.3047C29.8063 62 30.2129 61.5935 30.2129 61.0918C30.2129 60.5901 29.8063 60.1836 29.3047 60.1836H12.8359C9.99811 60.1836 7.68945 57.8749 7.68945 55.0371V6.96289C7.68945 4.12506 9.99811 1.81641 12.8359 1.81641H49.1641C52.0019 1.81641 54.3105 4.12506 54.3105 6.96289V55.0371C54.3105 57.8749 52.0019 60.1836 49.1641 60.1836H32.6953C32.1936 60.1836 31.7871 60.5901 31.7871 61.0918C31.7871 61.5935 32.1936 62 32.6953 62H49.1641C53.0035 62 56.127 58.8765 56.127 55.0371V6.96289C56.127 3.12349 53.0035 0 49.1641 0Z" fill="black"/>
<path d="M27.5332 9.45185C26.9042 8.82289 26.0679 8.47656 25.1785 8.47656C24.2891 8.47656 23.4528 8.82289 22.8238 9.45185L17.4722 14.8036L16.4019 13.7331C15.7729 13.1043 14.9366 12.7578 14.0472 12.7578C13.1578 12.7578 12.3215 13.1042 11.6925 13.7331C10.3942 15.0316 10.3942 17.1442 11.6925 18.4426L15.1177 21.8678C15.7466 22.4967 16.5829 22.8431 17.4723 22.8431C18.3618 22.8431 19.198 22.4968 19.827 21.8678L27.5333 14.1613C28.1622 13.5325 28.5087 12.6961 28.5087 11.8066C28.5087 10.9172 28.1621 10.0808 27.5332 9.45185ZM26.2488 12.8769L18.5426 20.5834C18.2567 20.8692 17.8765 21.0267 17.4722 21.0267C17.0679 21.0267 16.6878 20.8692 16.4019 20.5835L12.9768 17.1583C12.3866 16.5682 12.3866 15.6078 12.9768 15.0177C13.2627 14.7318 13.6429 14.5744 14.0472 14.5744C14.4515 14.5744 14.8316 14.7318 15.1175 15.0176L16.83 16.7302C17.0003 16.9006 17.2314 16.9962 17.4722 16.9962C17.7131 16.9962 17.9441 16.9006 18.1144 16.7303L24.1081 10.7364C24.3941 10.4506 24.7742 10.2931 25.1785 10.2931C25.5828 10.2931 25.9629 10.4506 26.2488 10.7364C26.5347 11.0222 26.6922 11.4024 26.6922 11.8068C26.6922 12.2111 26.5347 12.5911 26.2488 12.8769Z" fill="black"/>
<path d="M26.7954 42.4873C26.7954 41.5977 26.4491 40.7615 25.82 40.1325C25.191 39.5037 24.3548 39.1572 23.4653 39.1572C22.5759 39.1572 21.7396 39.5036 21.1105 40.1325L19.612 41.6311L18.1135 40.1325C17.4845 39.5037 16.6482 39.1572 15.7588 39.1572C14.8694 39.1572 14.0331 39.5036 13.4041 40.1325C12.7752 40.7615 12.4287 41.5979 12.4287 42.4873C12.4287 43.3767 12.775 44.2131 13.4041 44.8421L14.9025 46.3405L13.4041 47.8388C12.7752 48.4678 12.4287 49.3042 12.4287 50.1936C12.4287 51.083 12.775 51.9194 13.4041 52.5484C14.0331 53.1772 14.8694 53.5237 15.7588 53.5237C16.6482 53.5237 17.4845 53.1773 18.1135 52.5484L19.612 51.0498L21.1105 52.5484C21.7395 53.1772 22.5758 53.5237 23.4652 53.5237C24.3546 53.5237 25.1909 53.1773 25.8199 52.5484C26.4488 51.9194 26.7953 51.083 26.7953 50.1936C26.7953 49.3042 26.4489 48.4678 25.8199 47.8388L24.3215 46.3404L25.8199 44.8421C26.4489 44.2131 26.7954 43.3769 26.7954 42.4873ZM24.5357 43.5577L22.395 45.6982C22.2246 45.8686 22.1289 46.0995 22.1289 46.3405C22.1289 46.5815 22.2246 46.8123 22.395 46.9828L24.5357 49.1235C24.8216 49.4093 24.979 49.7895 24.979 50.1938C24.979 50.5982 24.8216 50.9784 24.5357 51.2642C24.2498 51.55 23.8696 51.7075 23.4653 51.7075C23.061 51.7075 22.6809 51.55 22.395 51.2642L20.2543 49.1235C20.084 48.9532 19.853 48.8576 19.6121 48.8576C19.3713 48.8576 19.1402 48.9532 18.97 49.1235L16.8294 51.2642C16.5435 51.55 16.1634 51.7075 15.759 51.7075C15.3547 51.7075 14.9746 51.55 14.6887 51.2642C14.4028 50.9784 14.2454 50.5982 14.2454 50.1938C14.2454 49.7895 14.4028 49.4093 14.6887 49.1235L16.8294 46.9829C16.9998 46.8125 17.0954 46.5816 17.0954 46.3406C17.0954 46.0997 16.9998 45.8689 16.8294 45.6984L14.6887 43.5577C14.4028 43.2719 14.2454 42.8916 14.2454 42.4873C14.2454 42.083 14.4028 41.7027 14.6887 41.417C14.9746 41.1312 15.3547 40.9736 15.759 40.9736C16.1634 40.9736 16.5435 41.1312 16.8294 41.417L18.9701 43.5577C19.3248 43.9122 19.8998 43.9122 20.2544 43.5577L22.3951 41.417C22.681 41.1311 23.0611 40.9736 23.4654 40.9736C23.8698 40.9736 24.2499 41.1311 24.5357 41.417C24.8216 41.7027 24.979 42.083 24.979 42.4873C24.979 42.8916 24.8214 43.2719 24.5357 43.5577Z" fill="black"/>
<path d="M27.5332 23.7917C26.9042 23.1629 26.0679 22.8164 25.1785 22.8164C24.2891 22.8164 23.4528 23.1627 22.8238 23.7917L17.4722 29.1433L16.4019 28.073C15.7729 27.4441 14.9366 27.0976 14.0472 27.0976C13.1578 27.0976 12.3215 27.444 11.6925 28.073C10.3942 29.3715 10.3942 31.4841 11.6925 32.7825L15.1175 36.2076C15.7465 36.8364 16.5828 37.1828 17.4722 37.1828C18.3616 37.1828 19.1979 36.8365 19.8269 36.2076L27.5333 28.5012C28.8315 27.2028 28.8315 25.0902 27.5332 23.7917ZM26.2488 27.2168L18.5424 34.9232C18.2565 35.2091 17.8764 35.3666 17.4721 35.3666C17.0678 35.3666 16.6876 35.2091 16.4017 34.9232L12.9767 31.4982C12.3865 30.9081 12.3865 29.9477 12.9767 29.3576C13.2626 29.0717 13.6427 28.9142 14.0471 28.9142C14.4514 28.9142 14.8315 29.0717 15.1174 29.3576L16.8299 31.0702C17.1846 31.4247 17.7597 31.4247 18.1142 31.0702L24.1081 25.0764C24.394 24.7905 24.7742 24.6331 25.1785 24.6331C25.5828 24.6331 25.9629 24.7905 26.2488 25.0764C26.8389 25.6663 26.8389 26.6267 26.2488 27.2168Z" fill="black"/>
<path d="M32.4443 13.541H50.3754C50.8771 13.541 51.2836 13.1345 51.2836 12.6328C51.2836 12.1311 50.8771 11.7246 50.3754 11.7246H32.4443C31.9426 11.7246 31.5361 12.1311 31.5361 12.6328C31.5361 13.1345 31.9426 13.541 32.4443 13.541Z" fill="black"/>
<path d="M32.4443 19.5957H41.4099C41.9116 19.5957 42.3181 19.1892 42.3181 18.6875C42.3181 18.1858 41.9116 17.7793 41.4099 17.7793H32.4443C31.9426 17.7793 31.5361 18.1858 31.5361 18.6875C31.5361 19.1892 31.9426 19.5957 32.4443 19.5957Z" fill="black"/>
<path d="M32.4443 28.8809H50.3754C50.8771 28.8809 51.2836 28.4743 51.2836 27.9727C51.2836 27.471 50.8771 27.0645 50.3754 27.0645H32.4443C31.9426 27.0645 31.5361 27.471 31.5361 27.9727C31.5361 28.4743 31.9426 28.8809 32.4443 28.8809Z" fill="black"/>
<path d="M32.4443 34.9355H41.4099C41.9116 34.9355 42.3181 34.529 42.3181 34.0273C42.3181 33.5257 41.9116 33.1191 41.4099 33.1191H32.4443C31.9426 33.1191 31.5361 33.5257 31.5361 34.0273C31.5361 34.529 31.9426 34.9355 32.4443 34.9355Z" fill="black"/>
<path d="M32.4443 44.2207H50.3754C50.8771 44.2207 51.2836 43.8142 51.2836 43.3125C51.2836 42.8108 50.8771 42.4043 50.3754 42.4043H32.4443C31.9426 42.4043 31.5361 42.8108 31.5361 43.3125C31.5361 43.8142 31.9426 44.2207 32.4443 44.2207Z" fill="black"/>
<path d="M32.4443 50.2754H41.4099C41.9116 50.2754 42.3181 49.8689 42.3181 49.3672C42.3181 48.8655 41.9116 48.459 41.4099 48.459H32.4443C31.9426 48.459 31.5361 48.8655 31.5361 49.3672C31.5361 49.8689 31.9426 50.2754 32.4443 50.2754Z" fill="black"/>
</svg>
